<?xml version="1.0" encoding="utf-8"?>
<!-- Generator: Adobe Illustrator 27.3.1, SVG Export Plug-In . SVG Version: 6.00 Build 0)  -->
<svg version="1.1" id="Layer_1" xmlns="http://www.w3.org/2000/svg" xmlns:xlink="http://www.w3.org/1999/xlink" x="0px" y="0px"
	 width="60px" height="48px" viewBox="0 0 60 48" style="enable-background:new 0 0 60 48;" xml:space="preserve">
<style type="text/css">
	.st0{fill:#1E5DAB;}
</style>
<g>
	<circle class="st0" cx="2" cy="2" r="2"/>
	<circle class="st0" cx="14" cy="2" r="2"/>
	<circle class="st0" cx="26" cy="2" r="2"/>
	<circle class="st0" cx="38" cy="2" r="2"/>
	<circle class="st0" cx="50" cy="2" r="2"/>
	<circle class="st0" cx="2" cy="14" r="2"/>
	<circle class="st0" cx="14" cy="14" r="2"/>
	<circle class="st0" cx="26" cy="14" r="2"/>
	<circle class="st0" cx="38" cy="14" r="2"/>
	<circle class="st0" cx="50" cy="14" r="2"/>
	<circle class="st0" cx="2" cy="26" r="2"/>
	<circle class="st0" cx="14" cy="26" r="2"/>
	<circle class="st0" cx="26" cy="26" r="2"/>
	<circle class="st0" cx="38" cy="26" r="2"/>
	<circle class="st0" cx="50" cy="26" r="2"/>
	<circle class="st0" cx="2" cy="38" r="2"/>
	<circle class="st0" cx="14" cy="38" r="2"/>
	<circle class="st0" cx="26" cy="38" r="2"/>
	<circle class="st0" cx="38" cy="38" r="2"/>
	<circle class="st0" cx="50" cy="38" r="2"/>
</g>
</svg>
