<?xml version="1.0" encoding="utf-8"?>
<!-- Generator: Adobe Illustrator 27.3.1, SVG Export Plug-In . SVG Version: 6.00 Build 0)  -->
<svg version="1.1" id="Layer_1" xmlns="http://www.w3.org/2000/svg" xmlns:xlink="http://www.w3.org/1999/xlink" x="0px" y="0px"
	 width="1600px" height="1200px" viewBox="0 0 1600 1200" style="enable-background:new 0 0 1600 1200;" xml:space="preserve">
<style type="text/css">
	.st0{fill:#FFFFFF;}
</style>
<g>
	<path class="st0" d="M302.4,344c-22.2,0-35.5,17.6-35.5,42v16.3v157.1v16.4c0,24.4,13.3,42,35.5,42c22.2,0,35.5-17.6,35.5-42v-16.4
		V402.3V386C338,361.6,324.7,344,302.4,344"/>
	<path class="st0" d="M469.4,419.6h-16.5v-10.9c0-11.5,6.6-16.2,25.2-14.3c18.6,1.9,22.8-10.2,22.8-20.2c0-7.7-1.8-11.9-8-18.1
		c-12.3-12.4-43.7-12-43.7-12s-28.2-1.4-47.5,13.9c-19.3,15.3-17.9,42.3-17.9,42.3v19.3h-2.9c-12.9,0-26.6,7.7-26.6,24
		c0,16.3,15.7,23.9,28.2,23.9h1.4v113.4c0,19.5,11.9,37,35.7,37c23.9,0,33.4-17.2,33.4-36.2V467.4h16.5c9.4,0,27.9-4.5,27.9-23.1
		C497.2,425.7,482.8,419.6,469.4,419.6"/>
	<path class="st0" d="M670.5,413c-11.6,0-20.7,4.8-26.8,12.9c-11.3-7.6-25.6-12.9-42.7-12.9c-72.6,0-104.5,54.9-104.5,107.1
		c0,56.7,38.6,100.2,104.5,100.2c15.5,0,30.1-5.4,42.2-13.4c6.1,8.4,15.4,13.4,27.2,13.4c22.2,0,35.5-17.6,35.5-41.9V454.9
		C706.1,430.5,692.7,413,670.5,413 M566.6,517.4c0-44.9,21.8-52.7,36.4-52.7c0.7,0,1.3,0,2,0c16.5,0.8,30,12.4,30,54.6
		c0,41.6-14.2,49.8-29.2,50.6c-0.8,0-1.6,0.1-2.5,0.1C586.7,570,566.6,562.3,566.6,517.4"/>
	<path class="st0" d="M239.7,563.9c-3.8-11.1-63.9-182.1-67-190.1c-3.1-8-6.1-14-13.1-19.2c-12-8.9-37.8-8.5-37.8-8.5
		s-25.7-0.4-37.7,8.5c-7.1,5.2-10,11.2-13.2,19.2c-3.1,8-63.2,179-67,190.1c-3.8,11.2-6.4,24.2,0,34.8c6.5,10.6,17.9,19.1,32.7,19.1
		c14.9,0,28.4-6.4,34-24.6c5.6-18.3,8.3-27.3,8.3-27.3h42.8h42.9c0,0,2.8,9,8.4,27.3c5.6,18.3,19.1,24.6,34,24.6
		c14.9,0,26.3-8.5,32.7-19.1C246.1,588.1,243.5,575,239.7,563.9 M95.2,507l26.6-86.5l26.6,86.5H95.2z"/>
	<path class="st0" d="M1506.6,823.7H0V856h1506.6c46.4,0,84.8-33.8,92.2-78.1C1577.6,805.7,1544.1,823.7,1506.6,823.7"/>
	<path class="st0" d="M1600,707.9v-25.8H93.4C41.8,682.1,0,723.9,0,775.5v25.8h1506.6C1558.2,801.3,1600,759.5,1600,707.9"/>
	<path class="st0" d="M1013.7,410.8c-38.1,0-75.4,51.2-88.5,71.2c0.7-5,1.8-11.5,3.7-19.5c3.1-13.2,5-31.3-3.7-42.3
		c-5-6.2-12.7-9.4-23-9.4c-35.3,0-70.1,45.2-85,67.2c1.8-6.7,3.9-14.5,5.2-19.7c2.5-10.3,6.8-27.5-0.3-37.3
		c-4.2-5.7-11.4-8.6-21.6-8.6c-16.5,0-35,7.6-35.8,7.9l-4,1.5l3.7,2.1c0,0,5,4.7,1.1,31.9c-6.7,47-22.3,103.4-28.7,125.4
		c-3.4,11.8-2.7,21.1,2.2,27.6c4.7,6.2,13.2,9.6,24,9.6c15.5,0,29.4-5.5,29.9-5.7l2.4-0.9l-1.5-2.2c-0.1-0.1-7.9-12,2.2-34.5
		c35.3-78.5,63.7-109.8,71.6-115.2c1.6-1.1,3.2-1.7,4.3-1.7c0.8,0,1.2,0.3,1.4,0.6c0.7,0.8,0.9,2.4,0.8,4.3
		c-3,27.1-14.3,73.2-21.9,103.8c-1.6,6.5-3,12.2-4.1,16.8c-2.8,11.9-1.9,20.9,2.7,26.8c4.2,5.3,11.4,8,21.5,8
		c15.8,0,29.8-5.6,30.4-5.9l2.6-1.1l-1.8-2.2c-0.1-0.1-7.8-10.1,2.8-34.4c26.3-60.9,61.5-107.9,70.7-114.6c3-2.2,4.6-2.5,5.4-2.5
		c0.5,0,0.9,0.1,1.1,0.5c0.9,1.1,1.2,3.8,0.6,6.7c-0.2,1.3-1.1,5.1-2.3,10.8c-4.5,20.8-13.9,63.9-19.2,93.7
		c-3.2,18.1-1.4,31.5,5.4,39.7c5.3,6.3,13.3,9.4,24,9.4c17.5,0,34.4-11.1,35.1-11.5l2.2-1.5l-1.9-1.8c-0.1-0.1-12.8-12.2-6.5-47.4
		c4.2-23.5,9.9-50.6,14.1-70.5c2.1-10,3.7-17.8,4.6-22.3l0.4-2.1c2.1-10.5,5.9-30.1-3.6-41.8C1031.6,413.8,1024,410.8,1013.7,410.8"
		/>
	<path class="st0" d="M1236.4,413c-11,0-19.7,2.9-25.7,8.7c-4.6-2.9-19.4-10.9-39.4-10.9c-10.8,0-27.6,2.4-46.2,14
		c-20.3,12.7-37.8,33.1-52,61c-32,62.8-16.8,108.5-9,119.6c7,9.8,17.1,14.5,31,14.5c19.4,0,46.6-8.3,86.5-71.2
		c-1.1,8.6-2.5,21.3-2.5,31.8c0,34.5,24.1,38.2,34.4,38.2c25.6,0,34.6-11.9,34.9-12.3l1-1.5l-1.3-1.2c-0.1-0.2-12-12.6-4.3-76.5
		c7.3-60.9,28.7-103.1,28.9-103.5l1-2l-2.1-0.9C1271,420.3,1253.8,413,1236.4,413 M1124.3,572.5c-5.3,0-8.1-9.3-8.1-18.4
		c0-10.3,5.3-69.2,30.5-99.3c5.4-6.5,11.7-9.9,18.6-9.9c15.8,0,30.9,17,34.5,21.3c-19.4,39.4-46.4,80.6-66,100.6
		C1130.2,570.5,1126.9,572.5,1124.3,572.5"/>
	<path class="st0" d="M1435.3,410.8c-28.2,0-61.7,46.4-75.8,68.1c2.2-9.5,5.3-23.2,8-35.7c2-9.5,1-17-3.2-22
		c-4.4-5.5-12.1-8.1-23.3-8.1c-15.8,0-35.1,6.8-36,7.1l-2.8,1l2,2.3c0.1,0.1,6,7.3,2.2,33.4c-4.1,28.2-21.8,98.4-29.8,126.5
		c-3.1,11.2-2.5,19.9,2,25.8c6.3,8.3,18.5,9.3,27.1,9.3c14.4,0,29.1-5.5,29.7-5.6l2.4-0.9l-1.4-2.2c-0.1-0.1-6.9-11,1.1-31.6
		c21.2-54.3,45.2-85.8,59.2-96.3c3.5-2.6,6.8-3.9,10-3.9c7.9,0,12.6,8.3,12.7,8.4l1.3,2.4l2-1.9c7.5-7.2,20.6-23.2,25.8-37.4
		c3.1-8.4,7.3-23.7,1.2-32.4C1446.8,412.9,1441.9,410.8,1435.3,410.8"/>
	<path class="st0" d="M1597.1,436c-7.9,2.9-27.3,4.6-53.2,4.6c-3,0-5.4,0-7.1-0.1c1.5-6.7,5.9-25.6,11-43
		c3.3-11.4,2.8-20.1-1.6-25.8c-4.2-5.6-11.8-8.3-23.2-8.3c-15.4,0-38.3,7.5-39.3,7.8l-3.3,1.1l2.5,2.4c9.1,8.9-0.1,51.7-4.5,67.5
		c-0.2,0.8-22.1,85.8-22.1,126.6c0,33.8,18.2,51,54.1,51c16.8,0,40.7-5,57.3-19.1c7.2-6.1,10.1-14.4,8.5-24.1
		c-1.2-7.1-4.4-12.3-4.6-12.5l-1.3-2.1l-1.8,1.7c-0.1,0.1-7.9,7-22.3,12.1c-5.6,2-10.2,2.9-14.2,2.9c-5.1,0-9-1.6-12.6-5.1
		c-8.6-8.4-3-38.7-1.2-48.6c2.7-15,9.3-43.9,10.9-50.9c2.6-0.1,8.1-0.2,15.1-0.2c5.4,0,10.6,0.1,15.7,0.2
		c30.7,0.7,39.5-23.3,39.9-35.9l0.1-3.1L1597.1,436z"/>
</g>
</svg>
