<?xml version="1.0" encoding="utf-8"?>
<!-- Generator: Adobe Illustrator 27.3.1, SVG Export Plug-In . SVG Version: 6.00 Build 0)  -->
<svg version="1.1" id="Layer_1" xmlns="http://www.w3.org/2000/svg" xmlns:xlink="http://www.w3.org/1999/xlink" x="0px" y="0px"
	 width="1600px" height="1200px" viewBox="0 0 1600 1200" style="enable-background:new 0 0 1600 1200;" xml:space="preserve">
<style type="text/css">
	.st0{fill:#FFFFFF;}
</style>
<g id="mZxnZp.tif">
	<g>
		<path class="st0" d="M410.3,619.9c10.4-2.1,10.4-2.1,15.8,7.2c9.1,15.7,15.4,32.3,17.9,50.5c4,28.9-0.8,56.5-10.6,83.5
			c-7.8,21.5-20.1,40.2-36.9,55.8c-17.9,16.7-38.8,27.9-62.5,34.4c-22.3,6.2-44.9,6.3-67.5,4.9c-16.6-1-32.7-5.7-48.2-11.9
			c-24.1-9.7-45.5-23.3-63.2-42.4c-12.9-13.9-22.6-29.8-28.3-48.1c-8.6-27.9-5-54.7,7.5-80.2c7.8-15.9,20.5-28.3,33.2-40.5
			c10.8-10.4,23.2-18.6,36.3-25.8c3-1.6,5.8-2.8,5.1-7c-0.2-1.3,1.9-2.1,1.3-3.8c-2.2-0.4-3.4,1.2-4.8,2.3c-2.7,2-5.7,3.3-9.1,2.6
			c-11.1-2.2-22.5-2-33.5-4.6c-1.1-0.3-2.2-0.5-2.5-1.7c-0.4-1.7,1-2.5,2.1-3.3c8-5.9,16.6-10.9,25.4-15.5
			c15.1-7.7,30.8-13.9,47.2-18.2c15-3.9,30.4-5.6,46-5.4c10.1,0.2,10.5-0.6,8.8-10.6c-2.1-12.3-5.1-24.4-12.6-34.7
			c-9.3-12.7-21.5-22.1-35.4-29.4c-10.4-5.4-21-9.8-33.1-9.3c-2.8,0.1-4.4,0.7-5.2,3.9c-4.3,16-5.2,32-2.3,48.3
			c2.1,11.7,6.3,22.7,12.5,32.8c2.9,4.8,2.6,6.3-2.7,8.3c-8.9,3.3-17.3,7.5-25.9,11.4c-2.9,1.3-4.9,0.8-6.7-1.9
			c-8.8-13.6-14.7-28.3-17.6-44.3c-2.2-12.2-2.6-24.3-0.2-36.6c0.3-1.5,1.3-3.6-0.5-4.7c-1.8-1-3.6-0.1-5.1,1.2
			c-10.6,8.2-20.7,16.8-26.8,29c-2.9,5.8-9.1,5-14,5.7c-22.6,3.3-40.9,13.7-54.2,32.2c-14.9,20.7-19.4,44.1-17.6,69.2
			c1.4,19.5,9.6,35.5,23.5,48.6c9.3,8.7,20.2,15.3,32.3,19.6c5.8,2.1,11.5,4.8,17.6,5.9c3.6,0.7,5.1,3.2,4.1,6.5
			c-2.1,6.7-1.3,13.5-1.7,20.3c-0.3,5.9-0.8,5.9-6.6,5.6c-11.7-0.8-22.9-3.6-34.1-6.8c-11.8-3.4-22.7-8.6-33.2-15.1
			c-15.7-9.8-26.2-23.3-33.3-39.9c-4-9.2-5.9-19.1-6.4-29c-0.6-12.3-1.1-24.7,0.8-37.1c1.4-9.1,3-18,6.2-26.6
			c7-19.2,17.9-35.4,34.6-47.8c16.2-12,34.4-17.8,53.9-20.9c5.8-0.9,11.5-2.5,17.3-3.8c1.8-0.4,2.8-1.9,3.9-3.2
			c9.1-11.4,19.9-20.9,31.9-28.9c8.3-5.5,17.8-9.4,28-10.5c1.3-0.1,3.4,0.4,3.3-1.6c-0.2-2.3-2.3-1.5-3.7-1.2
			c-2.8,0.5-6.7,3-8.3,0.7c-2.1-3.1,1.6-6.2,3.3-8.9c10.4-16.6,24.4-29.6,41.1-39.8c15.3-9.3,31.8-15.7,49-19.5
			c23.4-5.2,47.2-6.9,71.2-5.9c0.5,0,0.9,0,1.4,0.1c2.1,0.5,5.4-0.1,5.7,2.1c0.5,2.8-3,1.9-4.6,2.4c-19.4,6.4-38.9,12.8-57.8,20.6
			c-19.1,7.9-37.7,16.7-54.5,29c-5.7,4.2-10.5,9.2-14.4,15.1c-2.1,3.1-1.3,4.1,2.2,4.1c7.6,0.1,15.2-0.3,22.8,1
			c24.6,4.1,46.9,12.5,63.4,32.3c11.5,13.8,17.8,30,21.2,47.4c0.9,4.7,1.8,9.4,1.7,14.3c-0.1,4.1,2.7,5.5,6.2,6.4
			c23.1,5.7,43.9,16,62.3,30.9c0.7,0.6,1.3,1.3,2.1,1.9c1.7,1.2,1.4,4.5,3.5,4.4c2.7-0.1,5.5-1.3,7.9-2.5c24.6-12.3,43-30.6,54.1-56
			c6.5-14.9,10.2-30.3,12.3-46.5c2.2-17.5,0.2-33.9-5.8-50.2c-7-18.9-19.3-33.9-35.7-45.3c-18.2-12.7-38.8-18.8-60.4-22.8
			c-18.4-3.4-36.8-3.4-55.2-2.5c-15.8,0.7-31.2,4.3-46.2,9.8c-17.1,6.3-33.9,13-49.7,22c-2.7,1.5-5.1,3.5-7.7,5.2
			c-0.8,0.5-1.7,1.9-2.8,0.7c-0.9-1,0.1-2,0.6-2.9c5.2-7.7,11.1-14.9,17.8-21.4c13-12.8,28.1-22,45.3-28.4c11.7-4.3,23.6-8,35.8-9.8
			c16.8-2.5,33.7-3.6,50.9-1.4c15.8,2,31.2,5.1,46.1,10.7c26.5,9.9,51.3,22.9,70.4,44.6c14.6,16.7,23.6,36.1,28.4,57.8
			c3.4,15.4,3.6,30.9,1.5,46.3c-3.5,25.4-12.5,48.8-28.1,69.5c-9.3,12.3-20.2,22.7-33.5,30.4c-9.2,5.4-18.8,10.2-29.2,12.9
			C413,616.9,413,616.9,410.3,619.9z M396.5,623.1c-2.2,0.4-4.5,0.7-6.7,1.1c-6.4,1.3-12.7,2.8-19.1,3.9c-18,3.1-36.1,3.9-54.3,3.8
			c-3.3,0-5.1,0.9-6.6,4.3c-5.3,11.9-10.8,23.7-18.1,34.5c-8.9,13.2-18.1,26.1-29.7,37.3c-9.1,8.8-19.7,14.9-31.5,17.5
			c-8.4,1.9-17.1,4.3-26,4.1c-1.4,0-2.8,0.3-4.1,0.6c-12.9,2.1-26,2.4-39,2.2c-3.4,0-5-1.8-5-5.3c-0.2-6.1,0.3-12.1,1.3-18.1
			c0.7-4.4,2.8-6.6,7.5-6.4c4.6,0.2,9.5,0.7,13.9-0.4c11.5-2.9,23.4-2.5,34.9-4.9c6.8-1.4,13.1-3.1,18.7-7.2
			c10.4-7.5,17.5-17.9,25.3-27.7c7.3-9.1,13.7-18.7,18.1-29.6c1.3-3.3,0.8-4.8-2.9-5.4c-9.5-1.7-18.8-4.1-27.9-7
			c-1.4-0.5-2.7-0.1-4.1,0.3c-8.1,2.4-15.9,5.9-22.7,10.6c-22.1,15.4-43,31.9-55.6,56.9c-9.8,19.4-12,38.9-3.5,58.7
			c10.9,25.6,26.6,47.6,50.2,63.1c18.3,12,38.4,18.7,60.3,19.4c17.3,0.5,34.3-0.5,51.2-5.2c14.7-4.1,29.3-8,41.6-17.5
			c19.5-15,33.1-34.2,40.9-57.5c6.9-20.7,9.2-42,6.8-63.8c-2-18.7-6.1-36.7-15.2-53.3C393.5,628.7,392.4,625.9,396.5,623.1z
			 M379.7,601.9c-6.7,2.2-10.9-1.9-15.3-5.6c-1.1-0.9-2.2-1.7-3.4-2.5c-9.5-6.1-19.5-11.4-30.2-15.3c-4.9-1.8-6.1-1.5-6.6,3.7
			c-0.7,6.6-1.6,13.2-3.3,19.7c-0.9,3.5,0.1,5.5,3.9,5.6C343.2,607.9,361.6,606.9,379.7,601.9z M225.1,586.3c0.7,0.1,1,0.2,1.2,0.1
			c0.4-0.1,0.9-0.3,1.2-0.6c6.5-5.8,12.5-4.9,19.1,0.3c4.2,3.2,9.1,5.7,15.1,3.9c2.1-0.6,4.7-0.6,6.8,0.5c4.7,2.5,9.8,3.7,14.7,5.5
			c3.3,1.3,4.3-0.1,4.7-2.8c0.9-5.8,1.9-11.6,2.4-17.5c0.5-6-0.1-6.6-6-6.3c-12.5,0.5-25,1.4-37.1,5.2
			C239.3,577.2,231.6,580.4,225.1,586.3z"/>
		<path class="st0" d="M1445.7,533.2c4-2.4,7.4-4.7,11.1-6.7c7.3-4,15-6.5,23.6-5.7c7.2,0.6,14.7-1.2,21.8,1.1
			c11.9,3.9,22.3,10.1,30.5,19.9c7.5,9,13.2,18.7,15.4,30.2c0.9,4.8,1.3,9.8,1.5,14.8c0.1,4.8-0.4,9.5-0.5,14.3
			c-0.3,12.7-6,23.1-12.9,33.1c-6.7,9.6-15.5,17.1-26.3,21.2c-13.2,5-27.1,6.7-41.4,2.6c-7.9-2.3-14.6-6.4-22.1-10.7
			c-0.1,1.8-0.2,3.5-0.2,5.1c0,34.3,0,68.6,0,103c0,8.1,0,8.1-8.3,8c-7.6-0.1-15.1-0.3-22.7-0.4c-1.9,0-2.5-0.9-2.7-2.5
			c-0.2-1.5-0.2-3.1-0.2-4.7c0-74.4,0-148.8,0-223.2c0-7.3,0-7.3,7.5-7.4c5.3-0.1,10.6-0.4,15.8-0.4
			C1444.1,524.8,1444.1,524.9,1445.7,533.2z M1515.7,587.4c-0.4-8.4-3.6-18.3-12.2-26.1c-9.8-9-21.2-11.7-33.6-7.9
			c-12.3,3.8-20.2,13.3-23.3,25.2c-3.2,12.2-1.3,24.2,6.2,35.3c9.7,14.4,31.8,19.2,46.4,8.6C1510,614.6,1515.7,603.7,1515.7,587.4z"
			/>
		<path class="st0" d="M934.8,534.4c0-2.6-0.1-4.2,0-5.7c0.2-3.3,2.1-4.5,5.4-4c6.3,1,12.6,0.7,18.9-0.3c5.3-0.8,7.8,0.9,7.8,6.1
			c0,40,0,80.1,0.1,120.1c0,4.3-1.4,5.8-5.7,5.7c-6.8-0.2-13.7-0.3-20.5,0c-4.7,0.2-6.6-1.6-6-6.2c0.1-1.2-0.1-2.4-0.2-3.8
			c-3.7,0.8-5.7,3.9-8.7,5.4c-20,10.4-40.6,12.3-60.9,1.6c-17-9-29.2-22.8-34.1-41.8c-3.2-12.5-3.3-25.3-0.8-38.1
			c4-21,16.3-35.8,34-46.3c6.8-4,14.4-7.2,23-6.3c7.4,0.8,14.9-0.8,22.3,0.9C918.5,523.7,926.3,528.6,934.8,534.4z M933,589.3
			c0.9-7.5-1.1-15-5.9-21.9c-12.8-18.5-36.9-21.7-53.3-5.2c-10.1,10.1-13.1,22.9-9.9,37c3.3,14.6,12.6,23.9,26.7,28.1
			c5.4,1.6,11.3,1.4,16.9-0.3C923,622.4,934.3,608.8,933,589.3z"/>
		<path class="st0" d="M1330.5,520.9c36.9-3.7,70,31.7,69.3,70c-0.6,39.2-31.8,69.2-70.1,69.3c-37.6,0.1-71.5-30.7-69.7-74.5
			C1261.3,554.5,1289.8,517.4,1330.5,520.9z M1295.2,590.5c-0.4,4.2,0.2,8.7,1.9,13.1c5.3,13.7,18.1,25.7,34.7,24.5
			c11.5-0.9,20.3-6.4,26.6-15.7c4.7-7,7.7-15,7.1-23.5c-0.6-8.3-3.3-16.1-8.6-23.1c-9.4-12.2-25.8-16.9-38.9-11.7
			C1306.1,558.9,1293.6,574.5,1295.2,590.5z"/>
		<path class="st0" d="M1019,531.3c7-4,12.7-8.7,20-9.6c13.8-1.6,27.9-3.1,40.2,5c9.6,6.3,17,14.8,20.5,26.4
			c3.7,12.2,4.3,24.5,4.2,37.1c-0.1,19.4,0,38.8,0,58.2c0,6.8-1,7.8-7.9,7.8c-6.1,0-12.1,0-18.2,0c-8.7,0-9.4-0.6-9.4-9.2
			c0-23,0-45.9,0-68.9c0-6.8-1.8-13.1-6.2-18.5c-6-7.4-14-9-22.6-7.4c-8.4,1.7-13.5,7.4-16,15.6c-2.4,7.8-2.9,15.7-2.9,23.8
			c0.1,19.4,0.1,38.8,0,58.2c0,5.9-0.4,6.3-6.4,6.3c-7.5,0-14.9-0.1-22.4,0c-3.5,0.1-5-1.1-5-4.8c0.1-40.7,0.1-81.3,0-122
			c0-4,1.4-5.7,5.7-4.7c6.6,1.4,13.3,0.5,20,0.3C1016.8,524.9,1019.9,525.4,1019,531.3z"/>
		<path class="st0" d="M614.8,568.2c0-26.7,0-53.4,0-80.1c0-6.4,0.1-6.5,6.6-6.5c25.8,0,51.6,0.1,77.4-0.1c4.8,0,6.1,1.6,6.1,6.2
			c0,7.7-0.9,15.5,0.6,23.2c0.5,2.6-1.2,3.6-3.6,3.7c-3.4,0.1-6.8,0.2-10.2,0.3c-11.3,0-22.7,0-34,0c-7.6,0-9.4,1.9-7.6,9.2
			c2,8.3,1.7,16.5,0.5,24.8c-0.6,4,2.1,4.6,5.2,4.6c13.4,0,26.7,0,40.1,0c6.3,0,6.3,0,6.2,6.5c0,6.7-0.5,13.4,0.2,20
			c0.5,5.2-1.4,5.8-5.8,5.8c-11.5-0.2-23,0-34.5-0.1c-11.7-0.2-10.1,1.4-11.7,10.6c-1.2,7-0.9,14.4,0.7,21.7
			c1.3,6,0.7,12.4,0.2,18.5c-0.4,5-1.6,9.9-0.6,15c0.5,2.7-1.1,4.8-4.3,4.8c-8.7,0-17.4,0-26.1,0c-4.4,0-5.3-2.8-5.3-6.5
			c0.1-21.6,0-43.1,0-64.7C614.8,579.3,614.8,573.7,614.8,568.2z"/>
		<path class="st0" d="M1165.5,604.9c0,15.2-0.1,30.4,0.1,45.6c0.1,4.7-1.8,5.9-6,5.8c-7.1-0.2-14.3,0-21.4-0.1
			c-5.9,0-6.4-0.4-6.4-6.3c0-28.2,0-56.5,0-84.7c0-1.6,0-3.1,0-4.7c-0.1-3.8-1.5-6-5.9-5.9c-10.2,0.2-9.2,0.6-9.2-9.3
			c0-5.1-0.1-10.2,0-15.4c0.1-4.5,1.6-5.7,6-4.9c6.9,1.3,9.1-0.5,9.2-7.4c0-10.1,0.1-20.2,0-30.3c-0.1-4.1,1.2-5.9,5.7-5.8
			c7.8,0.3,15.5,0.2,23.3,0c3.6-0.1,5,1.3,4.9,4.9c-0.1,11,0.1,22-0.1,33.1c-0.1,3.7,1.4,5,4.7,5.2c3.3,0.2,6.5,0.5,9.8,0.5
			c2.6,0,4.1,0.9,4.1,3.7c0,7.3,0,14.6,0,21.9c0,2.5-1.2,3.7-3.7,3.7c-3.4,0-6.8,0.2-10.3,0c-3.4-0.2-4.6,1.2-4.6,4.6
			C1165.6,574.5,1165.5,589.7,1165.5,604.9z"/>
		<path class="st0" d="M813.1,569c0,27-0.1,54,0.1,81c0,4.6-1.2,6.4-6,6.2c-7.4-0.3-14.9-0.2-22.4-0.1c-3.5,0.1-5-1.1-5-4.8
			c0.1-55,0.1-109.9,0-164.9c0-4,1.7-5.1,5.3-5c7.6,0.2,15.2,0.2,22.8,0c4.2-0.1,5.3,1.7,5.2,5.5C813,514.4,813.1,541.7,813.1,569z"
			/>
		<path class="st0" d="M1195.2,590.5c0-19.7,0-39.4,0-59.1c0-6.2,1.5-7.5,7.5-6.4c6.3,1.1,12.7,0.1,19.1,0.2c1.6,0,3.6-0.6,4.5,0.5
			c2.8,3.5,4.7,1.5,7.1-0.4c6.5-5.2,14.2-4.6,21.8-4c2,0.2,2.3,2,2.3,3.6c0.1,8.1,0,16.1,0,24.2c0,3.3-2.1,3.7-4.9,4.2
			c-8.7,1.6-16.9,4.6-20.6,13.7c-1.8,4.4-3,9.1-3,13.9c-0.1,21.3,0,42.5,0,63.8c0,1.8,0.1,3.6,0.9,5.4c1.4,3.4-0.2,6-3.8,6.1
			c-9,0.2-18,0.1-27,0.1c-3.6,0-3.7-2.6-3.8-5.2c0-9.9,0-19.9,0-29.8C1195.2,610.9,1195.2,600.7,1195.2,590.5z"/>
		<path class="st0" d="M1566.2,589.9c0-20,0-40,0-60.1c0-5.7,0-5.1,5.4-4.8c7.9,0.4,15.8,0.5,23.7-0.2c3.7-0.3,4.4,0.9,4.7,3.7
			c0.1,1.1,0.1,2.2,0.1,3.3c0,39.1,0,78.2,0,117.3c0,6.9-0.2,7.1-7,7.1c-7,0-14-0.2-21,0.1c-4.4,0.2-6-1.4-5.9-5.9
			C1566.3,630.2,1566.2,610.1,1566.2,589.9z"/>
		<path class="st0" d="M758.1,590.5c0,19.9-0.1,39.7,0.1,59.6c0,4.6-1.4,6.4-6.1,6.2c-7.6-0.3-15.2,0-22.8-0.1c-5.3-0.1-6.6-2-5-7
			c0.7-2,0.5-4,0.5-6c0-37.4,0-74.8,0-112.2c0-7,0-6.4,7-5.9c6.8,0.5,13.6-0.1,20.4-0.6c4.8-0.4,5.9,0.2,5.9,5.5
			C758.1,550.1,758.1,570.3,758.1,590.5z"/>
		<path class="st0" d="M722.6,744.3c1.3-1.5,0.7-3.3,0.7-4.9c0.1-13.5,0-27,0-40.5c0-2.7,0-5.4,3.8-5.7c3.8-0.3,5.8,0.8,5.7,5.1
			c-0.2,12.4-0.1,24.8-0.1,37.2c0,6.7,0.1,13.3,0,20c0,2.2,0.9,5.3-2.2,5.9c-3.4,0.6-7.2,1.5-9.6-2.4c-3.8-6-7.7-11.9-11.7-17.9
			c-6.7-10.2-13.5-20.4-20.3-30.7c-1.7,1.6-1,3.4-1,5c-0.1,13.5-0.1,27,0,40.5c0,3.7-0.9,6-5.2,5.9c-3.1-0.1-4.5-1.2-4.5-4.4
			c0.1-19.9,0-39.7,0-59.6c0-1.8-0.2-4.1,2.3-4.4c3-0.3,6.3-1.3,8.5,1.9c2.6,3.8,5.3,7.7,7.8,11.5c7.5,11.4,15,22.8,22.6,34.1
			C720.3,742.2,720.9,743.7,722.6,744.3z"/>
		<path class="st0" d="M874.2,726.5c-1.4-9.3,2-18.1,8.6-25.7c13.4-15.4,39.6-12.9,50,4.5c9,15.1,7.9,30.4-0.2,45
			c-4.4,8.1-12.5,12.4-21.9,13c-7.1,0.4-14.3,0.8-20.7-3.4C878.3,752.2,873.2,741.3,874.2,726.5z M883.7,727.6c0,3.4,0.3,6.8,1,10.1
			c1.9,9.3,8.9,15.7,18.5,17c9.3,1.2,19-3.3,22.3-11.8c4.8-12.3,5.7-24.4-3-35.9c-7.4-9.8-26.7-9-33.4,0.8
			C884.9,714,883.8,720.6,883.7,727.6z"/>
		<path class="st0" d="M777.3,727.2c0-9.6,0.1-19.3,0-28.9c0-3.7,1.3-5.3,5.2-5.2c7.1,0.2,14.3,0.4,21.4,0
			c17.5-1.1,27.5,10.1,29.8,24.5c1.6,9.7,1.2,19.5-3.1,28.7c-4.7,10.1-12.6,15-23.5,15.4c-8.2,0.2-16.5-0.1-24.7,0.1
			c-3.8,0.1-5.3-1.4-5.2-5.2C777.4,746.7,777.3,737,777.3,727.2z M786.7,727c0,7.1,0.1,14.3,0,21.4c0,3.1,1.1,4.6,4.3,4.5
			c6.2-0.1,12.4,0.2,18.6-0.8c4.4-0.7,8.1-2.7,10.2-6.5c6.5-11.4,6.8-23.3,1.2-35.1c-2.1-4.4-5.9-6.6-10.7-8.1
			c-6.3-1.8-12.6-1-18.9-1.4c-3.8-0.3-4.8,1.5-4.8,5C786.8,713,786.6,720,786.7,727z"/>
		<path class="st0" d="M1025.2,744.4c0-10.2,0-20,0-29.7c0-5.6,0.1-11.2,0-16.8c-0.1-3.7,1.5-4.9,5.1-4.9c3.6,0,4.5,1.8,4.5,4.9
			c0,17.4,0,34.8,0,52.1c0,1.7,0.1,3.4,0,5.1c-0.1,2.1,1.6,5.2-1.6,6.1c-3.4,0.9-7.3,1.5-9.8-2.1c-5.1-7.4-9.9-15-14.9-22.4
			c-5.7-8.5-11.6-16.8-16.6-25.7c-0.3-0.6-1.1-1-1.7-1.6c-1.4,1.7-0.8,3.4-0.8,5c-0.1,14.1,0,28.2-0.1,42.4c0,4.4-2.2,5.9-6.2,4.7
			c-1.6-0.5-2.5-1.3-2.4-3.3c1.1-20.4,0.9-40.9,0.1-61.3c-0.1-1.7,0.2-3,1.7-3.3c3.2-0.6,6.7-1.6,9.1,1.4c2.3,2.9,4,6.2,6.1,9.3
			c8.7,13,17.4,26,26.1,38.9C1023.9,743.5,1024.3,743.7,1025.2,744.4z"/>
		<path class="st0" d="M1191.1,763.4c-6.3,0.3-11.9-1-17.2-4c-6.3-3.6-7.6-9.9-9.4-15.9c-0.5-1.7,0.3-4.2,1.9-4.1
			c2.3,0.1,5.4-1.8,7.1,1.3c0.8,1.5,1.5,3.1,2,4.7c1.9,6,6.6,8.4,12.2,9.3c6.2,1,12.2,0.2,16.6-4.9c4.8-5.7,2.3-13.2-5.3-15.8
			c-5.4-1.8-11-3.2-16.5-4.8c-4.1-1.2-7.8-2.9-10.9-5.8c-8.8-8.4-5.5-25.3,6.6-30c12.1-4.7,24.1-2.9,31.6,5.6
			c2.4,2.8,3.9,5.9,4.6,9.5c0.4,2.2,0.8,4.7-2.2,5.3c-2.9,0.6-5.8,1-7.3-2.8c-4-10.1-10.2-13.1-20.7-10.2c-4.3,1.2-8.6,6.1-8.4,10
			c0.3,4.9,3.9,7.3,7.9,8.7c5.7,1.9,11.7,3.1,17.4,4.8c15.1,4.4,18.8,17.5,12.1,30.1c-3.5,6.5-10.7,7.9-17.5,9.2
			C1194.3,763.6,1192.5,763.4,1191.1,763.4z"/>
		<path class="st0" d="M1079.6,727.3c0-9.6,0.1-19.2,0-28.9c0-4,1.5-5.5,5.5-5.4c12.1,0.2,24.2,0.1,36.3,0.1c2.8,0,5.5,0,5.4,3.9
			c-0.1,3.6-2.5,4.1-5.4,4.1c-9-0.1-18,0.1-27-0.1c-3.4-0.1-4.8,1.1-4.7,4.6c0.2,4,0.1,8.1,0,12.1c-0.1,3.5,1.5,4.6,4.8,4.6
			c7.8-0.1,15.5-0.1,23.3,0c2.5,0,5.3-0.3,5.5,3.4c0.1,3.8-2.6,4.1-5.4,4.1c-7.6,0-15.2,0.2-22.8-0.1c-4.1-0.1-5.6,1.5-5.3,5.5
			c0.2,4.3,0.2,8.7,0,13c-0.2,3.6,1.6,5.2,4.9,5.3c3.4,0.1,6.9,0.2,10.2-0.2c6.2-0.8,12.4,0.3,18.6-0.2c2.9-0.2,4,1.8,3.9,4.6
			c0,2.8-1.4,3.9-4,3.9c-13,0-26.1,0-39.1,0c-4,0-4.5-2.5-4.5-5.5C1079.6,746.6,1079.6,736.9,1079.6,727.3z"/>
		<path class="st0" d="M1341.1,693.2c4.3-1,5.6,1.8,6.9,5.4c7.1,19.3,14.6,38.4,21.8,57.6c0.6,1.6,2.9,4-0.3,5
			c-2.5,0.8-5.4,1.4-7.7-1.3c-3-3.6-3.7-8.2-5.1-12.3c-1.6-4.9-4-7.2-9.3-6.8c-5.2,0.4-10.5,0.2-15.8,0.1c-3.8-0.1-5.6,1.7-6.7,5.1
			c-1.2,4-2.7,7.9-4.2,11.8c-1.3,3.5-5.8,5.2-9.2,3.6c-2-1-1.5-2.5-0.9-3.9c1.5-4.1,3.1-8.1,4.7-12.1c6.3-16.1,12.7-32.1,18.8-48.3
			C1335.4,693.5,1337.7,692.7,1341.1,693.2z M1340.5,732.4C1340.5,732.4,1340.5,732.4,1340.5,732.4c2.5-0.1,5,0,7.4-0.1
			c1.9-0.1,3.2-1,2-3c-3.4-6.1-5-12.9-7.6-19.4c-0.3-0.9-0.7-1.8-1.8-1.8c-1.2,0-1.4,1-1.7,1.9c-1.8,4.6-3.8,9.1-5.5,13.7
			c-3.1,8.6-3,8.6,6.2,8.6C1339.9,732.4,1340.2,732.4,1340.5,732.4z"/>
		<path class="st0" d="M1583,481.6c4.2,0,8.4,0.1,12.6,0c2.9-0.1,4.4,1,4.4,4c0,7.9,0,15.8,0,23.7c0,2.8-1.1,4.4-4.1,4.4
			c-8.5,0-17.1,0-25.6,0c-2.7,0-4-1.1-4-3.9c0-8.1,0-16.1,0-24.2c0-3,1.4-4.1,4.3-4.1C1574.6,481.7,1578.8,481.6,1583,481.6z"/>
		<path class="st0" d="M741.5,481.6c4,0,8.1,0.1,12.1,0c3.1-0.1,4.6,1.1,4.5,4.3c-0.1,7.8-0.1,15.5,0,23.3c0,3.1-1.1,4.6-4.3,4.5
			c-8.5-0.1-17.1,0-25.6-0.1c-3.1,0-4.2-1.1-3.8-4.9c0.8-7.5,1.5-15.1-0.5-22.6c-0.9-3.6,1.5-4.4,4.2-4.5
			C732.5,481.5,737,481.6,741.5,481.6C741.5,481.6,741.5,481.6,741.5,481.6z"/>
		<path class="st0" d="M1259.3,727.3c0-9.6,0.2-19.2-0.1-28.9c-0.1-4.5,2-5.6,6-5.3c4.1,0.3,4.6,2.9,4.4,6.2
			c-1.3,18.3-1.2,36.5-0.1,54.8c0.2,2.9,0.3,5.8-2.7,7.3c-4,2-7.3-0.2-7.4-4.7C1259.3,746.8,1259.4,737.1,1259.3,727.3
			C1259.4,727.3,1259.3,727.3,1259.3,727.3z"/>
		<path class="st0" d="M631.2,727.4c0,9.6,0,19.2,0,28.8c0,2.9-0.3,5.3-4.1,5.4c-3.7,0.1-5.5-1.7-5.5-5.3c0-19.2,0-38.5,0-57.7
			c0-3.5,1.3-5.5,5.2-5.6c4.2-0.1,4.3,2.5,4.3,5.5C631.2,708.2,631.2,717.8,631.2,727.4z"/>
	</g>
</g>
</svg>
