<?xml version="1.0" encoding="utf-8"?>
<!-- Generator: Adobe Illustrator 27.3.1, SVG Export Plug-In . SVG Version: 6.00 Build 0)  -->
<svg version="1.1" id="Layer_1" xmlns="http://www.w3.org/2000/svg" xmlns:xlink="http://www.w3.org/1999/xlink" x="0px" y="0px"
	 width="1600px" height="1200px" viewBox="0 0 1600 1200" style="enable-background:new 0 0 1600 1200;" xml:space="preserve">
<style type="text/css">
	.st0{fill:#FFFFFF;}
</style>
<g>
	<g>
		<g>
			<path class="st0" d="M1226.4,635.4l-144.8-144.8c-36.3-36.3-37.3-95.4-2.2-131.7c17.7-18.3,41.5-28.4,66.9-28.4
				c24.8,0,48.2,9.7,65.8,27.2l74.8,74.8c39.2,39.2,39.2,102.9,0,142.1L1226.4,635.4z M1146.4,377.9c-12.5,0-24.2,5-32.9,14
				c-17.3,17.9-16.5,47.2,1.7,65.4l111.3,111.3l27.2-27.2c20.7-20.8,20.7-54.5,0-75.3l-74.8-74.8
				C1170.1,382.6,1158.6,377.9,1146.4,377.9z"/>
		</g>
		<g>
			<path class="st0" d="M1503,873.3c-24.9,0-48.2-9.7-65.8-27.3l-145.8-145.8l60.6-60.6c19-19,44.2-29.4,71.1-29.4
				c26.8,0,52.1,10.4,71.1,29.4l74.8,74.8c17.6,17.6,27.3,40.9,27.3,65.8c0,24.9-9.7,48.2-27.3,65.8
				C1551.2,863.7,1527.8,873.3,1503,873.3z M1358.1,700.2l112.4,112.4c8.7,8.7,20.2,13.4,32.4,13.4c12.2,0,23.8-4.8,32.4-13.4l0,0
				c8.7-8.6,13.4-20.2,13.4-32.4c0-12.2-4.8-23.7-13.4-32.4l-74.8-74.8c-10.1-10.1-23.4-15.6-37.6-15.6c-14.2,0-27.6,5.5-37.6,15.6
				L1358.1,700.2z"/>
		</g>
		<g>
			<path class="st0" d="M1146.4,873.3c-23.8,0-47.7-9.1-65.8-27.2c-17.6-17.6-27.3-40.9-27.3-65.8c0-24.9,9.7-48.3,27.3-65.8
				l145.9-145.9l131.7,131.7l-145.9,145.8C1194.1,864.2,1170.2,873.3,1146.4,873.3z M1226.4,635.4L1114,747.9
				c-8.7,8.7-13.4,20.2-13.4,32.4c0,12.2,4.8,23.7,13.4,32.4c17.9,17.9,47,17.9,64.9,0l112.5-112.4L1226.4,635.4z"/>
		</g>
		<g>
			<path class="st0" d="M1493,540.6c-28.6,0-55.4-11.1-75.6-31.3l0,0c0,0,0,0,0,0c-20.2-20.2-31.3-47.1-31.3-75.6
				c0-28.6,11.1-55.4,31.3-75.7c20.2-20.2,47.1-31.3,75.6-31.3c28.6,0,55.4,11.1,75.7,31.3c20.2,20.2,31.3,47.1,31.3,75.6
				c0,28.6-11.1,55.4-31.3,75.7C1548.5,529.5,1521.6,540.6,1493,540.6z M1493,373.9c-16,0-31,6.2-42.2,17.5
				c-11.3,11.3-17.5,26.3-17.5,42.2s6.2,31,17.5,42.2l0,0c11.3,11.3,26.3,17.5,42.2,17.5c16,0,31-6.2,42.2-17.5
				c11.3-11.3,17.5-26.3,17.5-42.2s-6.2-31-17.5-42.2C1524,380.1,1509,373.9,1493,373.9z"/>
		</g>
	</g>
	<g>
		<g>
			<g>
				<rect x="23.2" y="432.6" class="st0" width="47.2" height="334.8"/>
			</g>
			<g>
				<rect y="723.9" class="st0" width="93.7" height="43.5"/>
			</g>
			<g>
				<rect y="432.6" class="st0" width="93.7" height="43.5"/>
			</g>
		</g>
		<path class="st0" d="M242.8,479.8c66.3,0,120.2,53.9,120.2,120.2c0,66.3-53.9,120.2-120.2,120.2h-74.4V479.8H242.8 M242.8,432.6
			H121.2v334.8h121.6c92.5,0,167.4-75,167.4-167.4S335.2,432.6,242.8,432.6L242.8,432.6z"/>
		<g>
			<g>
				<rect x="979.4" y="600" class="st0" width="47.2" height="167.4"/>
			</g>
			<path class="st0" d="M859.3,432.6c-92.5,0-167.4,75-167.4,167.4c0,8,0.6,15.9,1.7,23.6h47.9c-1.5-7.6-2.4-15.5-2.4-23.6
				c0-66.3,53.9-120.2,120.2-120.2c66.3,0,120.2,53.9,120.2,120.2s-53.9,120.2-120.2,120.2c-48,0-89.4-28.3-108.6-69.1h-50.8
				c21.6,67.5,84.8,116.3,159.5,116.3c92.5,0,167.4-75,167.4-167.4C1026.7,507.5,951.7,432.6,859.3,432.6z"/>
		</g>
		<g>
			<g>
				<rect x="429.3" y="576.4" class="st0" width="284.8" height="47.2"/>
			</g>
			<path class="st0" d="M680.3,651.1c-19.2,40.8-60.6,69.1-108.6,69.1c-66.3,0-120.2-53.9-120.2-120.2s53.9-120.2,120.2-120.2
				c66.3,0,120.2,53.9,120.2,120.2c0,8.1-0.8,16-2.4,23.6h47.9c1.1-7.7,1.7-15.6,1.7-23.6c0-92.5-75-167.4-167.4-167.4
				c-92.5,0-167.4,75-167.4,167.4c0,92.5,75,167.4,167.4,167.4c74.6,0,137.8-48.9,159.4-116.3H680.3z"/>
		</g>
	</g>
</g>
</svg>
